<?xml version="1.0" encoding="utf-8"?>
<!-- Generator: Adobe Illustrator 23.1.0, SVG Export Plug-In . SVG Version: 6.00 Build 0)  -->
<svg version="1.1" id="Layer_1" xmlns="http://www.w3.org/2000/svg" xmlns:xlink="http://www.w3.org/1999/xlink" x="0px" y="0px"
	 viewBox="0 0 1057.1 305.1" style="enable-background:new 0 0 1057.1 305.1;" xml:space="preserve">
<style type="text/css">
	.st0{fill:#F44502;}
	.st1{opacity:0.6;}
	.st2{fill-rule:evenodd;clip-rule:evenodd;fill:#F44502;stroke:#F44502;stroke-width:3;stroke-miterlimit:10;}
</style>
<g>
	<g>
		<g>
			<path class="st0" d="M252.1,198.2c2.7,0.2,4.5,0.7,5.4,1.6c0.9,0.9,1.4,2.6,1.6,5.2c0.4,2.9,0,7.2-1,12.8
				c-1,5.6-2.3,10.6-3.9,14.9c-0.9,2-0.5,3.1,1.4,3.3c1.4,0,5.5-0.3,12.2-0.8c9.4-1.1,16-1.9,19.8-2.4s16.3-1.9,37.5-4.1
				c15.8-1.8,25.3-2.7,28.7-2.7c3.4,0,5.7,0.9,7.2,2.7c2.5,3.8,3.1,6.8,1.6,9.1c-1.4,2.3-5.9,5-13.3,8.3c-11.4,5.3-25.3,9-41.7,11.1
				c-16.4,2.2-38.7,3.3-67,3.3c-21.2,0-34.9-0.2-41.2-0.7s-11.1-1.5-14.5-3.1c-10-5.1-12.2-10.6-6.8-16.6c1.6-1.8,4-2.9,7.2-3.4
				s10.4-0.7,21.6-0.7c0.7,0,1.8,0,3.3,0c4.9,0,8.3,0,10.3,0s4.2-0.2,6.7-0.7c2.4-0.4,4-0.9,4.6-1.4c0.6-0.4,1.4-1.5,2.3-3.3
				c0.9-1.7,1.5-3.3,1.8-4.8c0.3-1.4,0.6-3.9,1-7.3c0.2-1.3,0.4-2.2,0.5-2.7c1.1-7.2,2.7-12,4.9-14.4
				C244.5,198.8,247.8,197.7,252.1,198.2z M288.1,101.6c2.3,2.4,3.4,9.2,3.4,20.2c0,7.1-0.3,12.2-1,15.5c-0.6,3.3-2.1,7-4.5,11.1
				c-4,7.3-7,12.2-9.1,14.8s-5.4,5.7-9.9,9.1c-4.9,3.6-10.5,5.7-16.7,6.2c-6.3,0.5-11-0.6-14.3-3.5c-3.3-2.7-4.7-8-4.3-15.8
				s2.4-14.1,6-19c2.5-3.8,7.7-9.3,15.5-16.6c7.8-7.2,15.2-13.6,22.3-19C281.6,100.2,285.8,99.2,288.1,101.6z M270.6,135.2
				c-1.8,0.5-5,3.4-9.5,8.4c-2.7,3.1-4.9,6-6.7,8.7c-1.7,2.7-2.4,4.4-2,5.2c0.9,1.1,2.4,1.2,4.6,0.4s4.5-2.5,7.1-5
				c2.5-2.5,4.4-5.1,5.4-7.6C272.8,137.8,273.1,134.4,270.6,135.2z"/>
			<path class="st0" d="M509.8,130.9c1.8,5.6-1.2,11-9.1,16.2s-21.2,10.5-39.8,15.9c-14.9,4.2-25.1,7.3-30.7,9.2
				c-3.6,1.5-13.9,4.4-30.7,9c-15.4,3.8-30.1,5.6-44,5.4c-10.5,0-18-0.6-22.6-1.9c-4.5-1.3-6.8-3.3-6.8-6c0-2.4,2-4.2,6.1-5.6
				c4.1-1.4,12.3-3,24.6-5c5.4-0.7,10-1.4,13.7-2s7.6-1.4,11.5-2.2c4-0.8,8.4-1.9,13.3-3.1c4.9-1.3,10.1-2.6,15.8-4.1
				c5.6-1.4,13-3.4,22.3-6c22.6-6.2,38-10.6,46.2-13.2c8.2-2.6,13.6-4.8,16.3-6.7C503.3,125.5,507.9,125.5,509.8,130.9z
				 M439.1,186.3c4.3,0,7.6,1.9,9.6,5.7c2.1,3.8,2.7,8.7,1.9,14.7c-0.8,6-3,11.8-6.7,17.4c-1.6,2.7-3.1,6-4.3,9.9
				c-1.3,3.9-2,7.1-2.2,9.5s0.2,3.9,1.1,4.2c0.5,0,3.6-1,9.1-3.1s11.8-4.5,18.8-7.3s12.7-5.2,17.3-7.2c3.3-1.4,5.5-2.2,6.7-2.3
				c1.2-0.1,2.4,0.7,3.7,2.3c1.4,1.8,1.2,4-0.7,6.5c-1.9,2.5-5.3,5.2-10.3,8s-11,5.6-18.1,8.3c-7.4,2.9-12.8,5.3-16,7.2
				c-3.3,1.9-6,4.3-8.2,7.2c-4.3,6-7.9,10.6-10.6,14c-2.7,3.3-5.2,5.9-7.5,7.6s-4.8,3.1-7.7,4.2c-8.7,3.6-16.9,4.4-24.5,2.3
				s-11.4-6-11.4-11.8c0-4.2,2.1-8.2,6.4-12.1s11.2-8.3,20.8-13.2l15.5-7.3v-11.1c0-7.1,1.4-13.9,4.1-20.4c1.1-2.9,1.9-5.2,2.6-7.1
				c0.6-1.8,0.8-2.7,0.4-2.7c-1.6,0-5.6,1.9-11.8,5.6c-6.2,3.7-10.8,6.9-13.7,9.6c-4,3.6-7.3,5.4-10.1,5.3c-2.7-0.1-5.3-2.2-7.6-6.4
				c-1.6-3.1-2.2-5.2-1.8-6.3c0.4-1.1,2.8-3.5,6.9-7.3c5.4-4.7,13.9-10,25.5-15.8C427.9,189,435.5,186.3,439.1,186.3z M408.7,64.3
				c1.1-0.4,2.4,0.2,4.1,1.6c1.4,1.5,2.2,3,2.2,4.8c0,1.7-0.6,5.1-1.9,10.2c-1.6,7.6-2.1,12.6-1.4,15c0.9,2.5,4.5,3.6,10.7,3.3
				c6.3-0.4,14.3-2.1,24.1-5.2c7.6-2.5,12.5-3.8,14.5-3.9c2.1-0.1,3.7,0.7,4.8,2.3c1.8,2.2,2.6,3.8,2.3,4.9c-0.3,1.1-1.8,3.1-4.5,6
				c-8.3,9.2-22.1,14-41.3,14.1c-9.6,0-16.8-1.1-21.5-3.3s-8.1-6-10.1-11.4c-1.6-4.5-1.3-10.1,1-16.7c2.3-6.6,5.6-12,9.9-16.2
				C405.2,66.5,407.6,64.7,408.7,64.3z M416,266.8c-1.5,0.5-3.7,1.5-6.8,3c-11.2,5.8-16.1,10.9-14.7,15.2c0.7,1.5,1.5,2.2,2.2,2.3
				c0.7,0.1,2.1-0.4,4.1-1.5c2.9-1.5,7.1-4.8,12.6-9.9c5.5-5.2,8.3-8.3,8.3-9.4C421.7,264.9,419.8,265,416,266.8z"/>
			<g>
				<path class="st0" d="M628.9,152.7c4.4,0.8,5,10.5,1.9,29.2c-1.8,10.4-3,21.1-3.5,32.3c-0.8,14.7-2.1,28.6-3.7,41.6
					c-1.6,13.1-3.1,20.8-4.3,23.2c-1.4,2.4-3.6,3.8-6.7,4.1c-3.1,0.3-5.4-0.6-7.1-2.9c-1.1-1.4-1.7-7.6-1.8-18.4
					c-0.1-10.8,0.4-18.2,1.3-22c0.6-2.1,0.3-3.1-0.8-3.1c-1.4,0.2-5.8,2.9-13.4,8.1c-9.7,7-22.9,14.8-39.5,23.2
					c-16.6,8.5-28.2,13.5-34.7,15.1c-4.5,1-7.9,1-10.1,0c-1.8-0.8-3.1-2.4-3.9-4.7c-0.8-2.3-0.8-4.2,0-5.6
					c2.1-3.5,21.5-13.8,58.4-30.9c7.4-3.5,16.4-8.3,27-14.4s16.6-9.9,18-11.5c0.8-1,3.1-9.9,6.8-26.8c1.9-8.8,3.5-15.5,4.6-20.1
					c1.2-4.6,2.2-8.1,3.2-10.5s2.1-4.1,3.3-5C625.1,152.9,626.7,152.6,628.9,152.7z"/>
				<path class="st0" d="M572.9,169.8c-0.3-1.7-1.3-3.2-3.1-4.5c-7.2-5.6-15.9-4.2-26.1,4.3c-2.9,2.5-5.7,5.7-8.4,9.4
					s-5.1,7.7-7.2,11.8c-2.1,4.2-3.6,8.2-4.5,12c-1.6,6.9,0.1,12.6,5.2,17.3c5.1,4.6,11,5.8,17.7,3.7c4.5-1.4,8.3-3.8,11.4-7.1
					c3.3-3.4,6.3-8.7,9.1-15.9s4.6-14.1,5.3-20.8C573,175,573.2,171.6,572.9,169.8z M555.4,193.3c-3.1,6.5-6,11-8.7,13.3
					c-1.3,1.1-2.1,1.6-2.5,1.6c-0.5,0-0.4-1.6,0.5-4.9c1.8-7.6,5.2-14.1,10.1-19.6c1.8-2,3.2-3.1,4.1-3.3
					C561.3,180,560.1,184.3,555.4,193.3z"/>
			</g>
		</g>
		<g>
			<path class="st0" d="M799.7,185.6c3.9-5.6,7.3-13.3,10.2-23.1c2.2-7.1,5-12.2,8.4-15.5c2-2.2,3.6-3.4,4.9-3.8
				c1.3-0.4,2.7-0.1,4.3,0.8c2.9,1.6,4.3,4,4.3,7.1c0,4.2-1.2,11.7-3.7,22.7c-2.4,11-4.8,19.8-6.9,26.5c-3.1,8.1-5,20.9-5.7,38.3
				c-0.5,10.5-1.2,18.2-1.9,23s-1.9,8.2-3.5,10.3c-1.6,2.1-4.1,3.2-7.3,3.4c-2.5,0.2-4.6-0.1-6.2-0.8c-1.6-0.7-3.4-2.2-5.2-4.4
				c-2.2-2.9-3.4-5.7-3.8-8.6c-0.4-2.8-0.2-9.7,0.5-20.8l1.4-23.4L799.7,185.6z"/>
			<path class="st0" d="M867.3,217.8c2.2,3.1,3.1,5.4,2.8,7.1c-0.4,1.6-2.4,3.4-6.1,5.4c-3.4,2-8.1,4.2-14,6.7
				c-5.9,2.4-11.3,4.4-16.3,6c-5,1.5-7.9,2.1-8.6,1.8c-2.9-1.4-4-4.6-3.3-9.4s2.7-8.7,6.1-11.8c2.4-2.2,6.9-4.3,13.6-6.5
				C855.2,212.8,863.9,213.1,867.3,217.8z"/>
			<path class="st0" d="M924.2,142.9c3.1,4,4.2,16.8,3.4,38.5c-0.8,21.6-3,35.2-6.7,40.6c-1.5,2.2-3.5,4.3-6.1,6.4s-5.4,3.8-8.4,5
				c-3,1.3-5.6,1.9-7.7,1.9c-3.4,0-7.2-2.6-11.4-7.7c-4.2-5.2-8.1-12-11.7-20.5c-3.6-8.9-5.4-18.9-5.4-30.2c0-8.3,0.2-13.4,0.7-15.1
				c0.5-1.7,2.2-3.3,5.3-4.8c2.9-1.4,4.8-2.1,5.8-1.9c1,0.2,2.3,1.4,3.9,3.5c1.8,2.2,3.3,2.9,4.5,2.3c1.2-0.6,4.2-3.8,9.1-9.6
				C910.3,139,918.6,136.2,924.2,142.9z M910.9,167.1c-0.6-1.6-3.2,1-7.9,7.9l-7.1,10.3l2.4,15c1.4,9.4,2.6,14.7,3.5,15.8
				c2.9,2.9,5.3-4.4,7.3-22l0.3-3C911,176.7,911.4,168.7,910.9,167.1z M1035.6,248.9c2.2,0.5,3,2.9,2.6,6.9
				c-0.5,4.1-1.9,7.7-4.5,10.7c-3.6,4.2-10.3,8.8-20.1,14c-9.8,5.2-19.8,9.2-30.2,12.1c-19.2,5.8-39.9,5.2-62-1.9
				c-8-2.5-13.2-5.2-15.6-8c-2.4-2.8-2.4-6.2,0.1-10.2c1.8-2.7,4.2-4.3,7.2-4.8s6,0.3,9.1,2.3c3.6,2.2,10.1,4,19.6,5.4
				c19.7,3.4,43.2-1.9,70.4-16C1026.6,252.3,1034.3,248.7,1035.6,248.9z M1037.1,133.7c1.5-1.4,3.6-2.2,6.1-2.2s4.2,0.3,5,0.8
				s1.2,1.8,1.2,3.8c0,3.8-1.3,9.4-3.9,16.8c-2.6,7.4-5.6,14.1-8.8,20.1c-6.5,11.4-12.3,25.8-17.4,43.2c-1.8,5.4-4.3,11.2-7.3,17.4
				c-2.2,4.3-3.9,7.2-5.3,8.4c-1.4,1.3-3.4,1.9-6.1,1.9c-2.9,0-4.7-0.4-5.4-1.2c-0.7-0.8-1.1-3-1.1-6.7c0-4.7,0.8-10.3,2.4-16.9
				c1.6-6.3,2.2-9.8,1.6-10.3c-0.9-0.7-6.6,1.1-17,5.4c-10.4,4.4-16.7,7.4-18.9,9.2c-2.5,2.5-6,3.6-10.5,3.3
				c-4.4-0.4-7.4-1.8-8.8-4.3c-1.6-3.3-0.8-6.2,2.5-8.7c3.3-2.5,13.5-8.2,30.7-17.1c13.8-7.2,22.6-12.3,26.5-15.1s7.9-7.2,12.1-13.2
				c6-8.2,11.2-16.5,15.8-25C1033.4,138.4,1035.6,135.1,1037.1,133.7z M988.9,150.7c3.4-0.1,6.2,1.4,8.2,4.5c3.1,4.2,4.1,7.3,3,9.4
				c-1.1,2.1-4.6,4-10.6,5.8c-8.2,2.5-14.9,5.8-20.4,9.8c-5.1,3.8-8.7,5.8-10.7,6.1c-2.1,0.3-4.4-0.9-6.9-3.4
				c-4.3-3.8-4.8-7.9-1.2-12.2c3.5-4.3,11.1-9.2,22.7-14.7C980.1,152.5,985.4,150.8,988.9,150.7z"/>
		</g>
		<g>
			<path class="st0" d="M731.6,154.3c4.9-0.3,8.4,0.2,10.3,1.6c1.7,1,3.3,3.2,4.7,6.4s2.1,6.2,2.1,9c0,2.6-1.8,10.7-5.3,24.2
				c-3.6,13.5-6.4,22.8-8.5,27.9c-3,7.5-11,14.5-24.2,21.1c-8.9,4.5-12.9,7.4-12,8.6c0.5,0.7,2.7,0.7,6.5,0c8-1.6,20.3-7.3,37-17.2
				c3.8-2.3,8.6-4.6,14.2-7.2c5.6-2.5,11.2-4.8,16.7-6.8s10.8-3.8,15.9-5.3c5.1-1.6,9.1-2.5,12-2.9c2.9-0.3,4.5-0.1,4.8,0.8
				c0,1.6-1.1,3.6-3.4,6.1c-2.3,2.5-5.4,5.2-9.4,7.9c-4,2.8-8.4,5.4-13.3,7.8c-11.6,5.9-23.5,12.7-35.7,20.3
				c-11.3,7.1-20.6,11.9-28,14.5c-7.4,2.5-14.4,3.3-21,2.2c-4-0.5-6.9-1.3-8.6-2.3c-1.7-1-3.4-2.9-4.9-5.5c-3.8-6.3-4.5-11.4-2-15.4
				s10-9.8,22.5-17.5l17.2-10.4l1.3-11.2c1.2-8.3,2.7-16,4.4-22.9c0.5-2.1,0.9-4,1.3-5.7c0.3-1.7,0.6-3.2,0.8-4.3s0.2-1.7,0-1.7
				c-0.3,0-4.3,2.4-11.7,7.2c-7.5,4.8-11.9,7.2-13.2,7.2s-2.7-1.3-4.2-4s-2.2-5.3-2.2-7.7c0-2.1,2.7-5.6,8.1-10.4
				c5.4-4.9,10.7-8.7,15.9-11.5C722.7,155.6,726.7,154.7,731.6,154.3z"/>
		</g>
	</g>
	<g>
		<g>
			<path class="st0" d="M983,70.3c-0.2,0.2-0.3,0.5-0.4,0.8c-2,3.9-7.8,13.8-17.3,29.5s-15.1,24.6-16.7,26.7c-1.9,2.3-3.2,3.6-3.9,4
				s-1.6,0.4-2.6-0.2c-1.4-0.9-1.5-2.7-0.5-5.5s4.2-8.9,9.5-18.4c5.4-9.9,9.9-19,13.7-27.3c8.2-18.5,15.7-32.3,22.4-41.4
				c3.8-5.2,7.5-11.3,11-18.4c2.1-4.1,3.7-6.9,4.7-8.5c1.1-1.6,2.1-2.7,3-3.2c1.7-1,2.9-0.8,3.5,0.6c0.6,1.4,0.7,4.1,0.3,8.2
				s-1.4,7.9-2.9,11.3c-1.6,3.5-4.7,8.8-9.4,16l-5.2,8.3L983,70.3z"/>
		</g>
		<g>
			<path class="st0" d="M1014.7,54.5l5.8-7.7c5-6.9,8.7-11.6,11.3-14.1c2.6-2.5,5.5-4.5,8.9-5.8c3.4-1.4,5.7-1.9,7-1.5
				c1.3,0.3,1.8,1.6,1.3,3.7c-0.2,1.2-0.8,2.5-2,4.1c-1.1,1.5-3.1,3.9-6.1,7.2c-5.1,5.4-9.4,10.9-12.9,16.4
				c-6.1,9.6-16,21-29.6,34.3c-6.2,6.1-12.8,13.2-19.8,21.4c-6.8,8.1-11.2,13-13.3,14.7c-2.1,1.8-3.7,2-4.8,0.7
				c-0.7-1-1-1.9-0.8-2.8c0.2-0.9,1-2.6,2.5-5.2c1.4-2.3,7.5-10.5,18.5-24.7s17.9-22.8,20.8-25.9c0.2-0.2,0.4-0.4,0.6-0.7
				L1014.7,54.5z"/>
		</g>
		<path class="st0" d="M1017,96.5c-0.2-0.6-0.5-1.1-1-1.4c-0.5-0.3-1.2-0.4-2-0.2c-1.2-0.2-5.5,0.9-13,3.3c-11.7,4-24.2,7-37.5,9
			c-4.5,0.8-8.4,1.3-11.9,1.5c-3.4,0.3-6.4,0.4-8.9,0.3c-2.5-0.1-4.5-0.4-5.9-1c-1.8-0.6-2.8-1-3.1-1.4s-0.3-1.2,0-2.4
			c0.5-1.4,2.4-4.1,5.8-8.1c0.7-0.9,1.5-1.8,2.3-2.8s1.5-1.9,2.1-2.9s1.3-2,2-2.9s1.3-1.8,1.9-2.8c3.9-6.4,4.2-11.4,0.9-14.9
			c-1.7-2-4.6-3.4-8.7-4.1c-4.2-0.8-9.4-0.9-15.5-0.3c-3.1,0.3-6.3,0.7-9.5,1.3c-1.7,0.3-3.4,0.7-5.1,1c-6.6,1.9-13.1,3.8-19.7,5.8
			c-8.5,2.6-15.9,5.5-23.6,9.9c-4.2,2.4-8.5,5.9-13.1,8.2c-0.5,0.4-1.1,0.8-1.6,1.2c-1,0.7-2,1.4-3,2s-1.8,1.1-2.5,1.5
			s-1.3,0.7-1.9,1l-3,0.8l-0.4,0.3L841,98l-0.4-10.1c-0.3-3.8-0.7-6.9-1.2-9.4s-1.1-4.4-1.8-5.7c-1.4-2.5-4.1-4-8.1-4.5
			c-5.2-0.4-13.2,5.2-23.9,16.7c-3.6,4-6.1,6.7-7.3,8.1c-1.4,1.4-2.3,1.9-2.5,1.5c-0.2-0.3,0.4-4.2,1.8-11.8c0.8-3.8,1.4-7,1.6-9.6
			c0.3-2.6,0.3-4.7,0.1-6.1c-0.3-2-0.6-3.3-0.9-4c-0.2-0.4-0.5-0.7-1-1.1c-0.5-0.3-1.1-0.7-1.9-1.2c-1-0.6-1.9-0.9-2.7-1.2
			c-0.8-0.2-1.6-0.3-2.1-0.2c-1.3,0-3.5,0.7-6.6,2.1c-7,2.8-18.4,11.7-34.1,26.8c-11.7,11.1-18,16.8-19,16.9c-0.3,0-0.5,0-0.6-0.2
			s-0.2-0.4-0.2-0.7c-0.1-0.9,0-2.7,0.4-5.3c0.2-1,0.7-4.8,1.6-11.4c0.2-0.7,0.4-1.7,0.5-2.9c0.1-1.2,0.4-2.8,0.7-4.8
			c0.1-0.5,0.1-1.1,0.2-1.8c0.1-0.6,0.1-1.1,0.2-1.6c0.1-0.4,0.2-0.8,0.2-1c0-0.3,0.1-0.6,0.2-1v-0.2c1.5-8.8,1-13.8-1.7-15.1
			c-0.3-0.1-0.6-0.2-0.9-0.3c-0.3-0.1-0.5-0.2-0.7-0.3c-0.2-0.1-0.3-0.2-0.5-0.2c-0.2-0.1-0.3-0.1-0.5,0c-0.4,0.1-1.2,0.4-2.3,1.1
			h-0.2c-0.8,0.4-1.8,1.8-3,4.4c-1.1,2.5-2,5.2-2.5,8c-0.2,0.8-1.5,6.4-4,16.8c-1.8,7.7-3.6,15.7-5.5,24.1c0,0.2-0.1,0.4-0.1,0.6
			c0,0.1,0,0.2,0,0.4c-0.5,7.1,0,13.1,8.2,15.6c3,0.9,4.8,2.6,7.7,2.2c1.2-0.6,2.6-1.1,3.9-1.5c0.4-0.2,0.8-0.5,1.2-0.7
			c3.4-3.4,7.4-7.3,12.1-11.8c7.4-7.3,13.2-13.2,17.2-17.5l13.1-13.5c4.5-4.2,6.9-6.2,7.2-5.8c0.3,0.4,0,2.7-1.1,6.9
			c-0.3,1.3-0.5,2.7-0.8,4.2c-0.4,1.4-0.7,2.9-1,4.6c-0.2,1.7-0.5,3.4-0.9,5.2c-0.3,2.5-0.4,4.6-0.3,6.4c0.1,1.8,0.3,3.4,0.6,4.7
			c0.2,0.8,0.6,1.6,1,2.3c0.4,0.8,0.8,1.5,1.4,2.1c0.5,0.6,1.2,1.2,2,1.8c1.4,0.9,2.5,1.4,3.2,1.5s1.9-0.1,3.6-0.6
			c2.4-0.6,4.6-1.8,6.6-3.7c0.9-0.8,2.4-2.4,4.5-4.9c2.1-2.2,4.6-5,7.5-8.5c9.9-11.5,15.3-16.8,16.3-16.1c0.5,0.3,0.6,2.1,0.5,5.2
			c-0.3,6.7,0.3,11.5,1.9,14.4c1.4,3.1,4.1,5.3,7.9,6.5c2.5,0.8,5,0.9,7.5,0.5c2.5-0.5,5.1-1.5,7.6-3.2c2.4-1.7,5-3.8,7.8-6.3
			c0.2-0.2,0.4-0.3,0.5-0.5c0.1,0,0.2,0,0.2,0c3.1-2.2,6.6-4,10.3-5.5c0.3-0.2,0.6-0.3,0.9-0.4c0.3-0.1,0.7-0.2,1-0.3
			c3.7-1.4,7.6-2.5,11.5-3.4c3.3-1,6.5-1.9,9.8-2.7c14.2-5.2,23.7-8.1,28.7-8.9c2.4-0.4,4.4-0.7,5.9-0.9c1.5-0.2,2.7-0.3,3.7-0.2
			c0.5,0,0.8,0.2,0.9,0.4c0.1,0.2,0.2,0.4,0,0.7c-0.1,0.3-0.3,0.5-0.6,0.9c-2.2,1.9-4.9,5.2-8.1,9.9c-1.6,2.5-3,4.5-4,6.2
			s-1.7,3-2.1,4.1c-1.3,3.8-1.1,7.2,0.7,10.3c1.7,3.1,4.8,5.5,9.1,7c1.9,0.7,4,1.3,6.4,1.6s4.9,0.5,7.7,0.6c2.7,0,5.7-0.1,8.8-0.4
			c3.1-0.3,6.5-0.9,10.1-1.6c3.7-0.7,7.5-1.6,11.4-2.6c4-1,8.2-2.3,12.6-3.7c4.4-1.4,9.1-3,13.9-4.6c2.6-1.1,4.8-2,6.8-2.8
			s3.5-1.5,4.8-2c0.9-0.2,1.7-0.5,2.3-0.9c0.6-0.3,1.2-0.7,1.8-1c0.5-0.3,1-0.5,1.4-0.7c1.1-0.6,1.8-1.2,2.1-1.9
			C1017.7,98.9,1017.7,97.7,1017,96.5z"/>
	</g>
</g>
<g class="st1">
	<polygon class="st2" points="56.9,179 54.3,171.7 58.8,165.4 51.1,165.7 46.4,159.5 44.3,166.9 37,169.3 43.4,173.7 43.5,181.4 
		49.6,176.7 	"/>
	<polygon class="st2" points="47.8,145.8 57.1,155.5 59.2,142.2 71.1,136.3 59.2,130.3 57.2,117 47.8,126.6 34.6,124.4 40.9,136.3 
		34.6,148.1 	"/>
	<path class="st2" d="M293,145.5C289.5,76,235.7,17.3,161.6,11.2c-5.8,0-11.5,0-17.3,0C73.6,14.9,16.2,69.5,10,142.6
		c0,6.2,0.1,12.4,0.1,18.7c4.4,68.6,56.9,125.7,130,132.8c6.2,0,12.4,0,18.7,0.1c70.3-3.6,128.2-58,134.3-131.4
		C293,156.9,293,151.2,293,145.5z M151.2,284.5C78.8,285,20.3,226.2,19.7,152.2c-0.6-72.3,58.5-131,132.2-131.5
		c72.4-0.5,130.8,58.3,131.4,132.2C284,225.3,225,283.9,151.2,284.5z"/>
	<path class="st2" d="M219.5,107.1c-6.4-0.3-5.3,7.6-5.5,12.5c-0.2,4.3-0.6,10.6,5.1,10.6c5.5,0,4.3-6.3,4.7-10.8
		C223,115.2,224.8,107.3,219.5,107.1z"/>
	<path class="st2" d="M198.2,113.8c1.2,0.7,2.2,0,3.1-0.9c5.3-5.8,11.9-9.3,19.3-11.3c1.1-0.3,2.3-0.6,2.6-2.1
		c-0.1-1.4-1-1.8-2.3-1.9c-5-0.4-20.5,8.5-22.8,13.3C197.4,111.8,196.9,113,198.2,113.8z"/>
	<path class="st2" d="M245.3,119.5c2.9-6,5.1-12.3,4.5-19.1c-0.6-6.9-3-11.6-11.1-13.2c-12.2-2.3-23.9-6.5-32.3-16.5
		c-2-2.4-3.7-2.1-5.8-0.1c-7.5,7.1-12.5,15.5-13.8,25.8c-1.2,9.3-1.9,9.7-11.1,6.8c-2.5-0.8-4.9-1.8-7.1-3.1
		c-14.7-8.3-21.8-27.2-15.4-40.1c0.8-1.8,4-3.4,1.9-5.4c-2.2-2-4.4,0.9-6,2.1c-20.4,14-29.5,34.6-32.9,58.2
		c-1.2,8.6-2.2,17.4-4.9,25.7c-5.2,16.3-4.2,31.2,7.1,45.4c3.8,4.7,11,10.6,5.6,18.8c-1.6,2.1-2.8,5.4-5.5,0.7
		c-1-1.8-2.6-3.6-4.4-4.5c-9.8-5.2-18.3-11.6-23.3-21.8c-1.7-2.5-0.6-4.1,1.3-6c5.7-5.7,5-8-2.6-10.5c-9.1-2.9-11.2-12.2-4.2-18.7
		c1.4-1.3,3.1-2.2,4.5-3.3c6.4-4.6,6.5-6.7,0.3-11.5C76.8,119,73.6,106,80.5,90.9c3.7-8,8.6-15.2,14.9-21.4
		c7.8-7.5,15.7-15,23.6-22.6c1.4-0.9,2.7-2,4.1-2.8c1.9-1,3.2-2.5,2.1-4.5c-1-2.3-3.2-1.6-5-0.9c-34.4,12.6-60.1,34.5-74.4,68.9
		c-0.6,1.4-3,3.3,0.2,4.5c2.2,0.8,3.2-0.5,4.2-2.5c3.5-7.2,7-14.6,11.3-21.4c11.3-17.8,26.8-30.9,46.7-38.6
		c-0.4,4.1-4.1,5.6-6.5,7.9C91.4,67.4,81.5,77.5,76,91c-6.3,15.5-3.5,29.3,8.6,39c4.8,3.8,6.2,6.1-0.2,9.7c-5.8,3.2-8.4,9-7.3,15.8
		c1.1,6.7,5.6,10.1,12,11.4c0.6,0.1,1.1,0.6,1.9,1c-1.2,3.1-4.9,4-5.6,7.2c-5.2-1-10.3-3.2-15.5-0.1c-8.4,5.3-9.5,12.4-2.1,20.5
		c4,4.5,5.2,9.5,5.6,14.9c0.4,4.9-0.3,9.8-0.5,14.8c-2.8-0.4-3.5-2.9-4.8-4.7c-5.5-8-10.9-16.1-16.2-24.2c-0.7-1.1-1-2.9-3-2
		c-1.4,0.6-2.1,2-1.8,3.5c0.4,1.4,0.9,2.7,1.7,3.9c7.1,11.3,15.5,21.8,23.9,32.3c1,1.1,2.2,3.4,3.6,2c2-2,3.2-5,1.1-8.1l0,0
		c-2.4-12,0.9-20.9,13.1-25.3c8.2-2.2,15.8-1.9,22.3,4.2c0.8,0.7,1.9,1.5,1.7,2.9c-0.4,1.5-1.9,1-3,1.3c-4.7,0.9-9.5,2-14.3,2.8
		c-1.9,0.3-3.4,0.4-3,2.8c0.6,2.5,2.4,1.6,4,1.3c4.8-0.9,9.7-1.9,14.5-2.9c5.9-1.2,12.2,4.8,11.6,11c-0.2,2-1.4,1.9-2.9,2.2
		c-4.4,0.7-8.6,1.7-12.9,2.6c-1.3,0.3-3.2,0.1-2.5,2.2c0.4,1.4,1.2,2.2,3.2,1.6c3.5-1.2,7.5-0.4,10.9-2.4c8.5-1.6,5.1,5,5.9,8.7
		c-1.7,5.9-2.7,12.3-10.1,13.9c-1.7,0.4-3.3,0.4-3.2,2.7c0,2.2,1.9,2.7,3.2,3.1c5.3,1.4,10.6,2.3,15.9,3.5
		c45.8,10.3,82-6.7,112.4-39.8c6.3-6.9,5.9-7.2-1.6-13.1c-1.1-0.8-1.9-2.1-2.7-3.2c1.1-5.9,6.6-7.7,10.4-11.1
		c4.6-4.2,4.3-7.4-1.1-10.4c-13.6-7.4-13.6-8.5-1.6-18.5c0.4-0.3,0.7-0.6,1.1-0.9c8-7.1,7.6-12.7-1.2-18.7c-8.7-5.8-9.8-9.5-5.9-19
		C242.4,126,243.8,122.7,245.3,119.5z M87,201C87,201,86.9,201,87,201c-0.1,0-0.1,0-0.2,0.1c-3.2,0.6-6.6,3.3-9.8,4.5
		c-0.9-5.8-4.5-10.2-8.1-14.9c-3.2-4.2-2.8-8.4,1-11.7c0.6-0.4,1.2-0.7,1.3-1c6.9-0.9,12.3,1.6,16.8,6.7C93.9,191.2,93.7,195,87,201
		z M141.1,207.8c-7.1,5.6-8,12.5-2.7,18.2c-0.8,0.9-3.6,3.6-4.5,4.5l0,0c-3.4,0.2-3.6-2.2-4.5-4.1c-2.8-5.4-5.6-9.6-6-15.8
		c4.1-1.9,4.1-10.6,8-12.6C130.9,198.9,139.8,203.1,141.1,207.8z M146.7,219.4L146.7,219.4c-1.9,1.5-3.6,2.9-5.4,4.3
		c-0.6-0.5-1.5-1.4-1.6-1.3c-1.7-1.6-2.5-2.9-2.4-4.2c-0.4,2.6-0.3,1.9,0.2-0.9c0.5-1.6,5.2-6.2,5.2-6.4c5.3-6.7,8,2.1,13.6,1.4
		c-4,3-6.7,5.1-9.5,7.1C146.8,219.4,146.7,219.4,146.7,219.4z M137.4,217.2c0.3-1.4,0.6-2.8,1.1-4.1
		C138.1,214.5,137.7,215.8,137.4,217.2z M182.9,259.3c-20.1,5.8-40.3,3.3-60.9-1.9c4.1-4.9,6.2-10.5,7.9-16.3
		c0.5-0.5,0.8-0.9,1.3-1.4c0,0,0,0,0-0.1c1.7-1.4,3.1-3.6,5.9-6.3l0,0c4.9-3.4,7.4-9.3,12.7-12.4c9-7.2,22.5-0.2,28,8.7
		c1,4.5,3.2,7.1,8.4,7.6c5.2,0.5,10.3,0.6,15.5,0c11.4-1.3,21.5-6.5,32-10.6C220.3,242.7,203.2,253.5,182.9,259.3z M243.8,150.8
		c8.1,5.5,8.2,8.1,0.6,14.3c-1.5,1.2-3,2.3-4.5,3.5c-7.8,6.5-6.8,14.7,2.3,19.2c7.8,3.8,7.7,3.8,1,9.3c-2.1,1.8-4.8,3.2-5.8,5.9
		c-1.9,3.5-2.7,8.4-1.6,9.9c1.9,2.8,5,2,4,4.7c-0.4,0.9,0.1,1.1-2.9,2.3c-0.1,0-0.2,0.2-0.3,0.3c0,0,0,0-0.1-0.1
		c-13.7,7-27.6,13.6-43.5,13.5c-9.7-0.1-11.7-2.1-12-11.5c0.4-2.2,7.8-4.7,0.5-6.7c-17.3-4.5-34.1-9.8-48.6-20.6
		c-6.4-5-11.6-11.1-16.1-17.8c-5.1-7.5-6.8-16.2-4.1-25.2c4.5-15,5.7-30.6,8.5-45.9c2.6-13.7,9.1-25.9,18.3-36.6
		c1.7-1.9,3.4-3.9,5.9-3.1c2.8,0.8,1.2,3.7,1.3,5.6c1.2,20.1,17.7,36.2,37.5,36.4c4.5,0,6.9-0.6,6.3-6.3c-1.1-10,3.3-18.4,9.7-25.8
		c1.8-2,2.9-3,5.5-0.5c8.6,8.4,19.6,12.4,31,14.9c7,1.6,9.5,5.5,9.2,12.1c-0.2,4.4-1.3,8.4-3.1,12.3c-2,4.5-4.1,9.1-5.9,13.7
		C233,139.1,234.7,144.7,243.8,150.8z"/>
	<path class="st2" d="M193.8,144c-5.5,0.9-9.9,4.5-9.6,9.8c0.5,8-4.2,7.4-9.2,7.1c-2.1-0.1-4.2-0.8-6.2-1.3c-1.3-0.3-3-1-3.5,0.9
		c-0.5,1.8,1.1,2.4,2.4,2.9c2.9,1.2,5.9,1.8,8.4,1.6c8.5,0,15.4-2.9,22.2-6.6c4.4-2.4,4.6-5.5,3.1-9.6
		C200.1,145.5,197.6,143.3,193.8,144z M189.8,157.9c-2.3,0.5-2.4-1.9-1.9-3.5c0.8-3.5,2.9-6,6.7-6.4c2.9-0.3,3.1,2.3,3.9,4.1
		C196.6,155.9,193.2,157.3,189.8,157.9z"/>
	<path class="st2" d="M147.6,108.6c-2.2,0-4,1.7-4,3.8V128c0,2,1.8,3.8,4,3.8c2.2,0,4-1.7,4-3.8v-15.6
		C151.5,110.3,149.8,108.6,147.6,108.6z"/>
</g>
</svg>
